<svg xmlns="http://www.w3.org/2000/svg" width="1509.754" height="618.024" viewBox="0 0 1509.754 618.024"><g transform="translate(-229 -1283)"><g transform="translate(235.957 1868.439)"><g transform="translate(-1082.197 -6566.126)" fill="none" stroke-linecap="round" stroke-linejoin="round"><path d="M1116.66,6587.379a13.852,13.852,0,1,0-4.265,4.21l6.469,2.122Z" stroke="none"/><path d="M 1118.863647460938 6593.7109375 L 1116.660034179688 6587.37890625 C 1118.0458984375 6585.2265625 1118.863647460938 6582.6689453125 1118.863647460938 6579.9189453125 C 1118.863647460938 6572.3017578125 1112.686401367188 6566.1259765625 1105.07177734375 6566.1259765625 C 1097.45703125 6566.1259765625 1091.280517578125 6572.3017578125 1091.280517578125 6579.9189453125 C 1091.280517578125 6587.5322265625 1097.45703125 6593.7109375 1105.07177734375 6593.7109375 C 1107.766967773438 6593.7109375 1110.273193359375 6592.921875 1112.39501953125 6591.5888671875 L 1118.863647460938 6593.7109375 M 1118.863037109375 6598.7109375 C 1118.341918945312 6598.7109375 1117.816284179688 6598.62939453125 1117.305053710938 6598.4619140625 L 1112.866088867188 6597.00537109375 C 1110.421020507812 6598.12646484375 1107.767456054688 6598.7109375 1105.07177734375 6598.7109375 C 1102.537353515625 6598.7109375 1100.075927734375 6598.212890625 1097.755737304688 6597.2314453125 C 1095.517944335938 6596.2841796875 1093.509033203125 6594.9296875 1091.784790039062 6593.205078125 C 1090.060791015625 6591.48095703125 1088.70654296875 6589.4716796875 1087.759765625 6587.23388671875 C 1086.778198242188 6584.9140625 1086.280517578125 6582.45263671875 1086.280517578125 6579.9189453125 C 1086.280517578125 6577.38427734375 1086.778198242188 6574.92236328125 1087.759643554688 6572.6025390625 C 1088.706420898438 6570.3642578125 1090.060791015625 6568.35498046875 1091.785034179688 6566.63037109375 C 1093.509155273438 6564.90625 1095.518188476562 6563.5517578125 1097.756225585938 6562.60498046875 C 1100.076171875 6561.62353515625 1102.537475585938 6561.1259765625 1105.07177734375 6561.1259765625 C 1107.60595703125 6561.1259765625 1110.067260742188 6561.62353515625 1112.387329101562 6562.60498046875 C 1114.625366210938 6563.5517578125 1116.634521484375 6564.90625 1118.358642578125 6566.63037109375 C 1120.0830078125 6568.35498046875 1121.4375 6570.36376953125 1122.384399414062 6572.60205078125 C 1123.365966796875 6574.92236328125 1123.863647460938 6577.38427734375 1123.863647460938 6579.9189453125 C 1123.863647460938 6582.66162109375 1123.2626953125 6585.353515625 1122.110107421875 6587.8271484375 L 1123.585815429688 6592.0673828125 C 1124.210815429688 6593.86328125 1123.763061523438 6595.8583984375 1122.4306640625 6597.21484375 C 1121.475341796875 6598.1875 1120.18359375 6598.7109375 1118.863037109375 6598.7109375 Z" stroke="none" fill="#76c5f0"/></g></g><g transform="translate(1404.597 939.71)" style="isolation:isolate"><path d="M273.4,396.764v-4.1a3.554,3.554,0,0,0,2.8-1.1q.941-1.084.94-4.879a31.109,31.109,0,0,1,.213-4.282,4.5,4.5,0,0,1,1.035-2.332,4.615,4.615,0,0,1,2.119-1.359,12.573,12.573,0,0,1,3.674-.418h.906v4.084q-2.479,0-2.965.513a3.089,3.089,0,0,0-.522,2q-.1,4.1-.264,5.332a7,7,0,0,1-.752,2.35,6.108,6.108,0,0,1-2.2,2.145,5.9,5.9,0,0,1,2.212,2.2,8.867,8.867,0,0,1,.812,3.691l.257,4.974a1.624,1.624,0,0,0,.735,1.085,5.988,5.988,0,0,0,2.666.367v4.1h-.889a11.3,11.3,0,0,1-4.221-.623,4.007,4.007,0,0,1-2.154-2.043,11.527,11.527,0,0,1-.666-4.58,24.727,24.727,0,0,0-.239-4.46,4.381,4.381,0,0,0-.923-1.786A3.447,3.447,0,0,0,273.4,396.764Z" fill="#ff9fa6"/><path d="M297.722,400.318v5.64H292.51v-5.64Z" fill="#ff9fa6"/><path d="M304.182,400.318v5.64H298.97v-5.64Z" fill="#ff9fa6"/><path d="M323.288,396.764a3.542,3.542,0,0,0-2.8,1.11q-.94,1.1-.939,4.854a32.4,32.4,0,0,1-.2,4.3,4.443,4.443,0,0,1-1.026,2.332,4.63,4.63,0,0,1-2.119,1.36,12.586,12.586,0,0,1-3.675.418h-.9v-4.1q2.375,0,2.913-.495a2.858,2.858,0,0,0,.574-2.017,50.7,50.7,0,0,1,.315-5.614,6.765,6.765,0,0,1,.854-2.315,5.483,5.483,0,0,1,2.026-1.88,6.71,6.71,0,0,1-2.051-1.88,5.719,5.719,0,0,1-.786-2.008,31.859,31.859,0,0,1-.308-4.033,23.24,23.24,0,0,0-.239-3.375,1.362,1.362,0,0,0-.658-.735,6.732,6.732,0,0,0-2.657-.308V378.29h.906a11.311,11.311,0,0,1,4.221.623,4,4,0,0,1,2.153,2.043,11.52,11.52,0,0,1,.667,4.58,22.786,22.786,0,0,0,.265,4.563,4.415,4.415,0,0,0,.939,1.717,3.449,3.449,0,0,0,2.538.846Z" fill="#ff9fa6"/></g><g transform="translate(-44.403 904.71)" style="isolation:isolate"><path d="M273.4,396.764v-4.1a3.554,3.554,0,0,0,2.8-1.1q.941-1.084.94-4.879a31.109,31.109,0,0,1,.213-4.282,4.5,4.5,0,0,1,1.035-2.332,4.615,4.615,0,0,1,2.119-1.359,12.573,12.573,0,0,1,3.674-.418h.906v4.084q-2.479,0-2.965.513a3.089,3.089,0,0,0-.522,2q-.1,4.1-.264,5.332a7,7,0,0,1-.752,2.35,6.108,6.108,0,0,1-2.2,2.145,5.9,5.9,0,0,1,2.212,2.2,8.867,8.867,0,0,1,.812,3.691l.257,4.974a1.624,1.624,0,0,0,.735,1.085,5.988,5.988,0,0,0,2.666.367v4.1h-.889a11.3,11.3,0,0,1-4.221-.623,4.007,4.007,0,0,1-2.154-2.043,11.527,11.527,0,0,1-.666-4.58,24.727,24.727,0,0,0-.239-4.46,4.381,4.381,0,0,0-.923-1.786A3.447,3.447,0,0,0,273.4,396.764Z" fill="#039fff"/><path d="M297.722,400.318v5.64H292.51v-5.64Z" fill="#039fff"/><path d="M304.182,400.318v5.64H298.97v-5.64Z" fill="#039fff"/><path d="M323.288,396.764a3.542,3.542,0,0,0-2.8,1.11q-.94,1.1-.939,4.854a32.4,32.4,0,0,1-.2,4.3,4.443,4.443,0,0,1-1.026,2.332,4.63,4.63,0,0,1-2.119,1.36,12.586,12.586,0,0,1-3.675.418h-.9v-4.1q2.375,0,2.913-.495a2.858,2.858,0,0,0,.574-2.017,50.7,50.7,0,0,1,.315-5.614,6.765,6.765,0,0,1,.854-2.315,5.483,5.483,0,0,1,2.026-1.88,6.71,6.71,0,0,1-2.051-1.88,5.719,5.719,0,0,1-.786-2.008,31.859,31.859,0,0,1-.308-4.033,23.24,23.24,0,0,0-.239-3.375,1.362,1.362,0,0,0-.658-.735,6.732,6.732,0,0,0-2.657-.308V378.29h.906a11.311,11.311,0,0,1,4.221.623,4,4,0,0,1,2.153,2.043,11.52,11.52,0,0,1,.667,4.58,22.786,22.786,0,0,0,.265,4.563,4.415,4.415,0,0,0,.939,1.717,3.449,3.449,0,0,0,2.538.846Z" fill="#039fff"/></g><g transform="translate(5460.645 618.979)"><path d="M-3754.6,1225.835l-10.851-9.9,10.851-9.905" transform="translate(0 -0.382)" fill="none" stroke="#3ee0bb" stroke-linecap="round" stroke-linejoin="round" stroke-width="4"/><path d="M-3732.975,1207.025l10.851,9.905-10.851,9.905" transform="translate(-1.767 -0.437)" fill="none" stroke="#3ee0bb" stroke-linecap="round" stroke-linejoin="round" stroke-width="4"/><line y1="34.042" x2="10.402" transform="translate(-3748.949 1199)" stroke-width="4" stroke="#3ee0bb" stroke-linecap="round" stroke-linejoin="round" fill="none"/></g></g></svg>